# xmcd
#
# Track frame offsets: 
#        183
#        19790
#        31980
#        49718
#        60588
#        70458
#        80320
#        99108
#        114420
#        124788
#
# Disc length: 1802 seconds
#
# Revision: 10
# Processed by: cddbd v1.5.2PL0 Copyright (c) Steve Scherf et al.
# Submitted via: ExactAudioCopyFreeDBPlugin 1.0
#
DISCID=7707080a
DTITLE=J. J. Cale - # 8
DYEAR=1983
DGENRE=Blues-Rock
TTITLE0=Money Talks
TTITLE1=Losers
TTITLE2=Hard Times
TTITLE3=Reality
TTITLE4=Takin' Care Of Business
TTITLE5=People Lie
TTITLE6=Unemployment
TTITLE7=Trouble In The City
TTITLE8=Teardrops In My Tequila
TTITLE9=Livin' Here Too
EXTD=YEAR: 1983
EXTT0=
EXTT1=
EXTT2=
EXTT3=
EXTT4=
EXTT5=
EXTT6=
EXTT7=
EXTT8=
EXTT9=
PLAYORDER=
